HIERARCHY
ROOT Hips
{
	OFFSET 54.006401 -17.140213 85.141403
	CHANNELS 6 Xposition Yposition Zposition Xrotation Yrotation Zrotation
	JOINT spine
	{
		OFFSET 0.000000 -0.367607 6.392601
		CHANNELS 3 Xrotation Yrotation Zrotation
		JOINT spine1
		{
			OFFSET 0.000000 -0.000002 9.176109
			CHANNELS 3 Xrotation Yrotation Zrotation
			JOINT spine2
			{
				OFFSET 0.000000 0.000000 8.792381
				CHANNELS 3 Xrotation Yrotation Zrotation
				JOINT Neck
				{
					OFFSET 0.000000 -1.076244 22.573708
					CHANNELS 3 Xrotation Yrotation Zrotation
					JOINT Head
					{
						OFFSET 0.000000 -0.000002 6.820114
						CHANNELS 3 Xrotation Yrotation Zrotation
						End Site
						{
							OFFSET 0.000000 5.444267 16.508499
						}
					}
				}
				JOINT RightShoulder
				{
					OFFSET -3.702209 0.515507 9.495087
					CHANNELS 3 Xrotation Yrotation Zrotation
					JOINT RightArm
					{
						OFFSET 0.000000 -0.000002 12.453697
						CHANNELS 3 Xrotation Yrotation Zrotation
						JOINT RightArmRoll
						{
							OFFSET 0.000000 -0.000002 6.286865
							CHANNELS 3 Xrotation Yrotation Zrotation
							JOINT RightForeArm
							{
								OFFSET 0.000000 -0.000002 18.311401
								CHANNELS 3 Xrotation Yrotation Zrotation
								JOINT RightForeArmRoll
								{
									OFFSET 0.000000 -0.000002 7.054825
									CHANNELS 3 Xrotation Yrotation Zrotation
									JOINT RightHand
									{
										OFFSET 0.000000 -0.000002 14.157501
										CHANNELS 3 Xrotation Yrotation Zrotation
										End Site
										{
											OFFSET 0.000000 0.000000 0.100006
										}
									}
								}
							}
						}
					}
				}
				JOINT LeftShoulder
				{
					OFFSET 3.702209 0.515507 9.495087
					CHANNELS 3 Xrotation Yrotation Zrotation
					JOINT LeftArm
					{
						OFFSET 0.000000 -0.000002 12.453697
						CHANNELS 3 Xrotation Yrotation Zrotation
						JOINT LeftArmRoll
						{
							OFFSET 0.000000 -0.000002 6.286865
							CHANNELS 3 Xrotation Yrotation Zrotation
							JOINT LeftForeArm
							{
								OFFSET 0.000000 -0.000002 18.311401
								CHANNELS 3 Xrotation Yrotation Zrotation
								JOINT LeftForeArmRoll
								{
									OFFSET 0.000000 -0.000002 7.054825
									CHANNELS 3 Xrotation Yrotation Zrotation
									JOINT LeftHand
									{
										OFFSET 0.000000 -0.000002 14.157501
										CHANNELS 3 Xrotation Yrotation Zrotation
										End Site
										{
											OFFSET 0.000000 0.000000 0.100006
										}
									}
								}
							}
						}
					}
				}
			}
		}
	}
	JOINT RightUpLeg
	{
		OFFSET -5.666161 0.871611 -1.039032
		CHANNELS 3 Xrotation Yrotation Zrotation
		JOINT RightUpLegRoll
		{
			OFFSET 0.000000 -0.000004 16.600502
			CHANNELS 3 Xrotation Yrotation Zrotation
			JOINT RightLeg
			{
				OFFSET 0.000000 0.000004 -20.557198
				CHANNELS 3 Xrotation Yrotation Zrotation
				JOINT RightLegRoll
				{
					OFFSET 0.000000 -0.000004 20.624397
					CHANNELS 3 Xrotation Yrotation Zrotation
					JOINT RightFoot
					{
						OFFSET 0.000000 -0.000002 17.166405
						CHANNELS 3 Xrotation Yrotation Zrotation
						JOINT RightToeBase
						{
							OFFSET 0.000000 -0.000002 14.350204
							CHANNELS 3 Xrotation Yrotation Zrotation
							End Site
							{
								OFFSET 0.006081 0.801059 6.949707
							}
						}
					}
				}
			}
		}
	}
	JOINT LeftUpLeg
	{
		OFFSET 5.666161 0.871611 -1.039032
		CHANNELS 3 Xrotation Yrotation Zrotation
		JOINT LeftUpLegRoll
		{
			OFFSET 0.000000 -0.000004 16.600601
			CHANNELS 3 Xrotation Yrotation Zrotation
			JOINT LeftLeg
			{
				OFFSET 0.000000 -0.000002 20.557098
				CHANNELS 3 Xrotation Yrotation Zrotation
				JOINT LeftLegRoll
				{
					OFFSET 0.000000 -0.000004 20.815094
					CHANNELS 3 Xrotation Yrotation Zrotation
					JOINT LeftFoot
					{
						OFFSET 0.000000 -0.000004 16.975708
						CHANNELS 3 Xrotation Yrotation Zrotation
						JOINT LeftToeBase
						{
							OFFSET 0.000000 -0.000002 14.350204
							CHANNELS 3 Xrotation Yrotation Zrotation
							End Site
							{
								OFFSET -0.027260 0.801059 6.949707
							}
						}
					}
				}
			}
		}
	}
}
MOTION
Frames: 5
Frame Time: 0.041667
48.623302 -10.042714 84.503891 -0.133010 -1.071418 33.752418 -1.190377 -0.295041 -0.019392 1.621966 -0.589825 -0.042015 3.267084 -0.590285 -0.034958 5.609320 -15.394176 23.137375 3.743501 25.413228 22.922535 -26.470463 -23.251333 -33.839472 -119.687618 -132.186509 -78.993139 -0.000001 -0.000002 -0.000004 102.114914 -2.716922 5.045366 -0.000006 0.000002 -2.999993 -5.000208 -7.998724 0.000179 -7.675889 34.285781 6.857471 -68.969693 114.061441 61.643291 0.000001 0.000001 0.000007 14.860552 7.555370 -0.274654 -0.000003 0.000005 3.000001 -5.000200 7.998730 -0.000157 -5.475448 -176.135662 2.254081 -179.999991 0.000005 -1.309004 157.723930 -3.871796 -1.610443 -0.000000 -0.000001 0.612838 77.645037 6.796998 1.704540 28.263867 -7.346432 0.361980 -10.120493 169.047824 -1.595841 -0.000006 -0.000004 -1.058404 -14.662803 1.290269 0.912246 -0.000000 0.000000 -0.111761 68.787470 -6.657610 -2.748643 25.457160 7.355623 -0.007786 
48.684898 -10.073616 84.498100 -0.165775 -1.049875 33.939456 -1.196157 -0.290374 -0.017253 1.610423 -0.580516 -0.037719 3.255538 -0.580925 -0.030767 5.522208 -15.413580 23.050053 3.766335 25.341948 22.851945 -26.560171 -23.228965 -33.975956 -119.712808 -132.359545 -78.511795 0.000001 0.000000 -0.000004 102.188140 -2.790022 5.230946 -0.000004 0.000003 -2.999988 -5.000208 -7.998724 0.000180 -7.798228 34.306145 7.027538 -69.004506 114.026948 61.523161 0.000002 0.000002 0.000009 14.661127 7.471243 -0.253479 -0.000002 0.000003 3.000001 -5.000200 7.998735 -0.000157 -5.412263 -176.175072 2.236963 -179.999991 0.000005 -1.309001 157.684493 -3.854976 -1.607665 -0.000002 0.000001 0.614798 77.681183 6.789792 1.724993 28.312466 -7.346153 0.368266 -10.178767 169.037948 -1.592463 -0.000006 -0.000004 -1.056152 -14.737697 1.286355 0.918843 -0.000000 0.000000 -0.107507 68.757657 -6.642667 -2.788327 25.457160 7.355620 -0.007786 
48.733898 -10.085915 84.504791 -0.197017 -1.029724 34.129660 -1.202017 -0.285420 -0.015162 1.598699 -0.570627 -0.033507 3.243812 -0.570987 -0.026678 5.429593 -15.427309 22.958588 3.794131 25.263640 22.776886 -26.651308 -23.207128 -34.114548 -119.740716 -132.534698 -78.035307 -0.000001 -0.000001 -0.000004 102.261353 -2.863031 5.416578 -0.000004 0.000001 -2.999992 -5.000211 -7.998724 0.000177 -7.926658 34.328493 7.206132 -69.040249 113.999696 61.402458 0.000002 0.000000 0.000007 14.471822 7.381515 -0.232006 0.000000 0.000004 3.000000 -5.000198 7.998727 -0.000160 -5.347835 -176.212515 2.220496 -179.999991 0.000005 -1.308999 157.647460 -3.838213 -1.605696 0.000001 0.000000 0.616936 77.715368 6.782535 1.745756 28.362574 -7.345832 0.374744 -10.238860 169.032074 -1.586208 -0.000005 -0.000004 -1.054074 -14.813786 1.281158 0.924875 -0.000001 -0.000001 -0.104136 68.733703 -6.629611 -2.822809 25.457152 7.355619 -0.007786 
48.794998 -10.103516 84.491501 -0.226519 -1.010283 34.322609 -1.208046 -0.280231 -0.013203 1.586656 -0.560271 -0.029561 3.231766 -0.560584 -0.022855 5.331884 -15.436246 22.863783 3.825524 25.180648 22.698259 -26.744883 -23.186378 -34.256551 -119.771329 -132.712269 -77.564605 -0.000002 -0.000001 -0.000003 102.335447 -2.935636 5.601308 -0.000004 0.000000 -2.999995 -5.000212 -7.998725 0.000178 -8.062104 34.352512 7.394577 -69.076886 113.978495 61.274276 0.000004 -0.000001 0.000005 14.284023 7.281747 -0.209179 -0.000003 0.000005 3.000004 -5.000199 7.998730 -0.000157 -5.282992 -176.248961 2.204651 -179.999991 0.000006 -1.308999 157.612462 -3.820604 -1.603211 -0.000001 0.000001 0.619225 77.748699 6.775380 1.766485 28.413082 -7.345477 0.381271 -10.302250 169.029301 -1.577801 -0.000005 -0.000004 -1.052141 -14.892174 1.275127 0.930548 -0.000001 0.000000 -0.101446 68.714531 -6.618168 -2.853003 25.457155 7.355619 -0.007786 
48.852798 -10.115915 84.486595 -0.254510 -0.991542 34.518198 -1.214216 -0.274818 -0.011326 1.574333 -0.549466 -0.025770 3.219438 -0.549734 -0.019197 5.229603 -15.440665 22.765826 3.860128 25.092780 22.616145 -26.840154 -23.166378 -34.401081 -119.804264 -132.891821 -77.098895 0.000001 -0.000000 -0.000004 102.410354 -3.007835 5.786106 -0.000005 0.000002 -2.999989 -5.000208 -7.998724 0.000177 -8.203595 34.377862 7.591528 -69.114281 113.963038 61.140814 0.000002 -0.000002 0.000007 14.099434 7.173814 -0.185526 -0.000002 0.000006 3.000001 -5.000199 7.998733 -0.000161 -5.217649 -176.284423 2.189320 -179.999991 0.000005 -1.308999 157.579349 -3.803040 -1.600561 0.000000 0.000000 0.621656 77.781450 6.768209 1.787053 28.463995 -7.345092 0.387853 -10.368456 169.027620 -1.567096 -0.000005 -0.000004 -1.050301 -14.972451 1.268371 0.935913 0.000000 0.000000 -0.099343 68.699566 -6.608070 -2.879392 25.457162 7.355618 -0.007785 
